<svg xmlns="http://www.w3.org/2000/svg" width="11" height="21" class="text-black"><path d="M9.625 5.25v10.5c0 1.969-2.063 3.938-4.125 3.938-2.063 0-4.125-1.97-4.125-3.938V3.937c0-1.312 1.375-2.624 2.75-2.624s2.75 1.312 2.75 2.625v10.5c0 .656-.688 1.312-1.375 1.312-.688 0-1.375-.656-1.375-1.313V5.25H2.75v9.188c0 1.312 1.375 2.624 2.75 2.624s2.75-1.312 2.75-2.625v-10.5C8.25 1.97 6.187 0 4.125 0 2.062 0 0 1.969 0 3.938V15.75C0 18.375 2.75 21 5.5 21s5.5-2.625 5.5-5.25V5.25H9.625z" fill="currentColor" fill-rule="evenodd"></path></svg>