<svg width="24" height="24" viewBox="0 0 24 24" fill="none" xmlns="http://www.w3.org/2000/svg">
<g opacity="0.6">
<path d="M15.9122 9.30436C15.8528 9.21202 15.7665 9.13517 15.6621 9.08169C15.5576 9.02821 15.4389 9.00002 15.3179 9H8.68196C8.56108 9.00005 8.44238 9.02825 8.33802 9.0817C8.23365 9.13516 8.14737 9.21195 8.08799 9.30423C8.02861 9.39651 7.99827 9.50095 8.00008 9.60688C8.00188 9.71281 8.03576 9.81642 8.09826 9.9071L11.4162 14.7117C11.477 14.7997 11.5627 14.8724 11.6649 14.923C11.7672 14.9735 11.8826 15 11.9999 15C12.1173 15 12.2327 14.9735 12.335 14.923C12.4372 14.8724 12.5229 14.7997 12.5836 14.7117L15.9016 9.9071C15.9641 9.81645 15.9981 9.71288 15.9999 9.60698C16.0018 9.50108 15.9715 9.39664 15.9122 9.30436Z" fill="#203048" fill-opacity="0.6"/>
</g>
</svg>
